<?xml version="1.0" encoding="UTF-8" standalone="no"?><svg xmlns="http://www.w3.org/2000/svg" xmlns:xlink="http://www.w3.org/1999/xlink" contentStyleType="text/css" height="62px" preserveAspectRatio="none" style="width:454px;height:62px;background:#FFFFFF;" version="1.1" viewBox="0 0 454 62" width="454px" zoomAndPan="magnify"><defs/><g><!--MD5=[e5da348f9a286ac789819f64e84f1dc7]
class Entreprise--><g id="elem_Entreprise"><rect codeLine="1" fill="#F1F1F1" height="48" id="Entreprise" rx="2.5" ry="2.5" style="stroke:#181818;stroke-width:0.5;" width="108" x="7" y="7"/><ellipse cx="22" cy="23" fill="#ADD1B2" rx="11" ry="11" style="stroke:#181818;stroke-width:1.0;"/><path d="M24.3438,18.6719 C23.4063,18.2344 22.8125,18.0938 21.9375,18.0938 C19.3125,18.0938 17.3125,20.1719 17.3125,22.8906 L17.3125,24.0156 C17.3125,26.5938 19.4219,28.4844 22.3125,28.4844 C23.5313,28.4844 24.6875,28.1875 25.4375,27.6406 C26.0156,27.2344 26.3438,26.7813 26.3438,26.3906 C26.3438,25.9375 25.9531,25.5469 25.4844,25.5469 C25.2656,25.5469 25.0625,25.625 24.875,25.8125 C24.4219,26.2969 24.4219,26.2969 24.2344,26.3906 C23.8125,26.6563 23.125,26.7813 22.3594,26.7813 C20.3125,26.7813 19.0156,25.6875 19.0156,23.9844 L19.0156,22.8906 C19.0156,21.1094 20.2656,19.7969 22,19.7969 C22.5781,19.7969 23.1875,19.9531 23.6563,20.2031 C24.1406,20.4844 24.3125,20.7031 24.4063,21.1094 C24.4688,21.5156 24.5,21.6406 24.6406,21.7656 C24.7813,21.9063 25.0156,22.0156 25.2344,22.0156 C25.5,22.0156 25.7656,21.875 25.9375,21.6563 C26.0469,21.5 26.0781,21.3125 26.0781,20.8906 L26.0781,19.4688 C26.0781,19.0313 26.0625,18.9063 25.9688,18.75 C25.8125,18.4844 25.5313,18.3438 25.2344,18.3438 C24.9375,18.3438 24.7344,18.4375 24.5156,18.75 L24.3438,18.6719 Z " fill="#000000"/><text fill="#000000" font-family="sans-serif" font-size="14" lengthAdjust="spacing" textLength="76" x="36" y="27.8467">Entreprise</text><line style="stroke:#181818;stroke-width:0.5;" x1="8" x2="114" y1="39" y2="39"/><line style="stroke:#181818;stroke-width:0.5;" x1="8" x2="114" y1="47" y2="47"/></g><!--MD5=[15bd0e1c1ec5b546c4e30b30908bbf38]
class Artisans--><g id="elem_Artisans"><rect codeLine="4" fill="#F1F1F1" height="48" id="Artisans" rx="2.5" ry="2.5" style="stroke:#181818;stroke-width:0.5;" width="90" x="150" y="7"/><ellipse cx="165" cy="23" fill="#ADD1B2" rx="11" ry="11" style="stroke:#181818;stroke-width:1.0;"/><path d="M167.3438,18.6719 C166.4063,18.2344 165.8125,18.0938 164.9375,18.0938 C162.3125,18.0938 160.3125,20.1719 160.3125,22.8906 L160.3125,24.0156 C160.3125,26.5938 162.4219,28.4844 165.3125,28.4844 C166.5313,28.4844 167.6875,28.1875 168.4375,27.6406 C169.0156,27.2344 169.3438,26.7813 169.3438,26.3906 C169.3438,25.9375 168.9531,25.5469 168.4844,25.5469 C168.2656,25.5469 168.0625,25.625 167.875,25.8125 C167.4219,26.2969 167.4219,26.2969 167.2344,26.3906 C166.8125,26.6563 166.125,26.7813 165.3594,26.7813 C163.3125,26.7813 162.0156,25.6875 162.0156,23.9844 L162.0156,22.8906 C162.0156,21.1094 163.2656,19.7969 165,19.7969 C165.5781,19.7969 166.1875,19.9531 166.6563,20.2031 C167.1406,20.4844 167.3125,20.7031 167.4063,21.1094 C167.4688,21.5156 167.5,21.6406 167.6406,21.7656 C167.7813,21.9063 168.0156,22.0156 168.2344,22.0156 C168.5,22.0156 168.7656,21.875 168.9375,21.6563 C169.0469,21.5 169.0781,21.3125 169.0781,20.8906 L169.0781,19.4688 C169.0781,19.0313 169.0625,18.9063 168.9688,18.75 C168.8125,18.4844 168.5313,18.3438 168.2344,18.3438 C167.9375,18.3438 167.7344,18.4375 167.5156,18.75 L167.3438,18.6719 Z " fill="#000000"/><text fill="#000000" font-family="sans-serif" font-size="14" lengthAdjust="spacing" textLength="58" x="179" y="27.8467">Artisans</text><line style="stroke:#181818;stroke-width:0.5;" x1="151" x2="239" y1="39" y2="39"/><line style="stroke:#181818;stroke-width:0.5;" x1="151" x2="239" y1="47" y2="47"/></g><!--MD5=[6ec3399d60c9d049ef8e1a69cd9f8864]
class Chantiers--><g id="elem_Chantiers"><rect codeLine="8" fill="#F1F1F1" height="48" id="Chantiers" rx="2.5" ry="2.5" style="stroke:#181818;stroke-width:0.5;" width="101" x="346.5" y="7"/><ellipse cx="361.5" cy="23" fill="#ADD1B2" rx="11" ry="11" style="stroke:#181818;stroke-width:1.0;"/><path d="M363.8438,18.6719 C362.9063,18.2344 362.3125,18.0938 361.4375,18.0938 C358.8125,18.0938 356.8125,20.1719 356.8125,22.8906 L356.8125,24.0156 C356.8125,26.5938 358.9219,28.4844 361.8125,28.4844 C363.0313,28.4844 364.1875,28.1875 364.9375,27.6406 C365.5156,27.2344 365.8438,26.7813 365.8438,26.3906 C365.8438,25.9375 365.4531,25.5469 364.9844,25.5469 C364.7656,25.5469 364.5625,25.625 364.375,25.8125 C363.9219,26.2969 363.9219,26.2969 363.7344,26.3906 C363.3125,26.6563 362.625,26.7813 361.8594,26.7813 C359.8125,26.7813 358.5156,25.6875 358.5156,23.9844 L358.5156,22.8906 C358.5156,21.1094 359.7656,19.7969 361.5,19.7969 C362.0781,19.7969 362.6875,19.9531 363.1563,20.2031 C363.6406,20.4844 363.8125,20.7031 363.9063,21.1094 C363.9688,21.5156 364,21.6406 364.1406,21.7656 C364.2813,21.9063 364.5156,22.0156 364.7344,22.0156 C365,22.0156 365.2656,21.875 365.4375,21.6563 C365.5469,21.5 365.5781,21.3125 365.5781,20.8906 L365.5781,19.4688 C365.5781,19.0313 365.5625,18.9063 365.4688,18.75 C365.3125,18.4844 365.0313,18.3438 364.7344,18.3438 C364.4375,18.3438 364.2344,18.4375 364.0156,18.75 L363.8438,18.6719 Z " fill="#000000"/><text fill="#000000" font-family="sans-serif" font-size="14" lengthAdjust="spacing" textLength="69" x="375.5" y="27.8467">Chantiers</text><line style="stroke:#181818;stroke-width:0.5;" x1="347.5" x2="446.5" y1="39" y2="39"/><line style="stroke:#181818;stroke-width:0.5;" x1="347.5" x2="446.5" y1="47" y2="47"/></g><!--MD5=[acdbf187e6b087d76f48ae2ba65ded72]
link Entreprise to Artisans--><g id="link_Entreprise_Artisans"><path codeLine="12" d="M115.176,31 C125,31 134.825,31 144.649,31 " fill="none" id="Entreprise-to-Artisans" style="stroke:#181818;stroke-width:1.0;"/><polygon fill="#181818" points="149.787,31,140.787,27,144.787,31,140.787,35,149.787,31" style="stroke:#181818;stroke-width:1.0;"/></g><!--MD5=[725f8433faf29221c99d2043ca5b4e16]
link Artisans to Chantiers--><g id="link_Artisans_Chantiers"><path codeLine="13" d="M240.081,31 C269.992,31 309.458,31 341.327,31 " fill="none" id="Artisans-to-Chantiers" style="stroke:#181818;stroke-width:1.0;"/><polygon fill="#181818" points="346.374,31,337.374,27,341.374,31,337.374,35,346.374,31" style="stroke:#181818;stroke-width:1.0;"/><text fill="#000000" font-family="sans-serif" font-size="13" lengthAdjust="spacing" textLength="70" x="258.25" y="24.0669">affectation</text></g><!--MD5=[d815a0d32bb570a7f54acd3473ea4f70]
@startuml
class Entreprise{

}
class Artisans{


}
Class Chantiers{


}
Entreprise->Artisans
Artisans->Chantiers:affectation
@enduml

PlantUML version 1.2022.2(Sat Mar 05 16:30:19 UTC 2022)
(GPL source distribution)
Java Runtime: Java(TM) SE Runtime Environment
JVM: Java HotSpot(TM) 64-Bit Server VM
Default Encoding: UTF-8
Language: en
Country: US
--></g></svg>